<svg xmlns="http://www.w3.org/2000/svg"  viewBox="0 0 100 100" width="100px" height="100px"><path fill="#f1bc19" d="M77,12c-0.6,0-1,0.4-1,1s0.4,1,1,1s1-0.4,1-1S77.6,12,77,12z"/><path fill="#e6edb7" d="M50,13c-20.4,0-37,16.6-37,37s16.6,37,37,37s37-16.6,37-37S70.4,13,50,13z"/><path fill="#f1bc19" d="M83,11c-2.2,0-4,1.8-4,4s1.8,4,4,4s4-1.8,4-4S85.2,11,83,11z"/><path fill="#88ae45" d="M87,22c-1.1,0-2,0.9-2,2s0.9,2,2,2s2-0.9,2-2S88.1,22,87,22z"/><path fill="#fbcd59" d="M81,74c-1.1,0-2,0.9-2,2s0.9,2,2,2s2-0.9,2-2S82.1,74,81,74z M15,59c-2.2,0-4,1.8-4,4c0,2.2,1.8,4,4,4 s4-1.8,4-4C19,60.8,17.2,59,15,59z"/><path fill="#88ae45" d="M25,85c-1.1,0-2,0.9-2,2s0.9,2,2,2s2-0.9,2-2S26.1,85,25,85z"/><path fill="#fff" d="M18.5,49c-1.4,0-2.5,1.1-2.5,2.5s1.1,2.5,2.5,2.5s2.5-1.1,2.5-2.5S19.9,49,18.5,49z M79.5,32 c-0.8,0-1.5,0.7-1.5,1.5s0.7,1.5,1.5,1.5s1.5-0.7,1.5-1.5S80.3,32,79.5,32z"/><path fill="#84a7d7" d="M35,72.3c-4,0-7.3-3.3-7.3-7.3V35c0-4,3.3-7.3,7.3-7.3h30c4,0,7.3,3.3,7.3,7.3v30c0,4-3.3,7.3-7.3,7.3H35z"/><path fill="#472b29" d="M65,28.4c3.6,0,6.6,3,6.6,6.6v30c0,3.6-3,6.6-6.6,6.6H35c-3.6,0-6.6-3-6.6-6.6V35c0-3.6,3-6.6,6.6-6.6H65 M65,27H35c-4.4,0-8,3.6-8,8v30c0,4.4,3.6,8,8,8h30c4.4,0,8-3.6,8-8V35C73,30.6,69.4,27,65,27L65,27z"/><path fill="#fffef4" d="M62.4,69H37.6C34,69,31,66,31,62.4V37.6c0-3.6,3-6.6,6.6-6.6h24.8c3.6,0,6.6,3,6.6,6.6v24.8 C69,66,66,69,62.4,69z"/><path fill="#472b29" d="M68.5,47.4c-0.3,0-0.5-0.2-0.5-0.5V43c0-0.3,0.2-0.5,0.5-0.5S69,42.7,69,43v3.9C69,47.2,68.8,47.4,68.5,47.4z"/><path fill="#472b29" d="M68.5,40.5c-0.3,0-0.5-0.2-0.5-0.5v-2c0-0.3,0.2-0.5,0.5-0.5S69,37.7,69,38v2C69,40.3,68.8,40.5,68.5,40.5z"/><path fill="#472b29" d="M64,69H36c-2.8,0-5-2.2-5-5V36c0-2.8,2.2-5,5-5h25.4c0.3,0,0.5,0.2,0.5,0.5S61.7,32,61.4,32H36 c-2.2,0-4,1.8-4,4v28c0,2.2,1.8,4,4,4h28c2.2,0,4-1.8,4-4V49.6c0-0.3,0.2-0.5,0.5-0.5s0.5,0.2,0.5,0.5V64C69,66.8,66.8,69,64,69z"/><path fill="#848484" d="M50.9,57.6c0,0,9.8,0,9.9,0c2.3,0,4.1-1.8,4.1-4.1c0-2-1.4-3.6-3.3-4c0-0.2,0-0.3,0-0.5 c0-2.3-1.9-4.2-4.2-4.2c-1.4,0-2.6,0.7-3.4,1.7c-0.2-2.6-2.5-4.6-5.3-4.3c-2,0.2-3.6,1.8-4,3.8c-0.1,0.6-0.1,1.2,0,1.8 c-0.5-0.6-1.3-0.9-2.1-0.9c-1.6,0-2.8,1.2-2.9,2.7c-0.7-0.2-1.5-0.1-2.3,0.2c-1.5,0.6-2.6,2-2.7,3.7c-0.1,2.3,1.8,4.3,4.1,4.3 c0.2,0,0.8,0,0.9,0h8.5"/><path fill="#472b29" d="M60.8,58h-9.9c-0.2,0-0.4-0.2-0.4-0.4s0.2-0.4,0.4-0.4h9.9c2.1,0,3.7-1.7,3.7-3.7c0-1.8-1.2-3.3-3-3.6 c-0.2,0-0.3-0.2-0.3-0.4c0-0.2,0-0.3,0-0.5c0-2.1-1.7-3.9-3.9-3.9c-1.2,0-2.3,0.6-3.1,1.5c-0.1,0.1-0.3,0.2-0.4,0.1 c-0.1,0-0.3-0.2-0.3-0.3c-0.1-1.2-0.7-2.3-1.6-3c-0.9-0.8-2.1-1.1-3.3-0.9c-1.8,0.2-3.4,1.6-3.7,3.5c-0.1,0.6-0.1,1.1,0,1.7 c0,0.2,0,0.3-0.2,0.4c-0.1,0.1-0.3,0-0.4-0.1c-0.5-0.5-1.2-0.8-1.9-0.8c-1.3,0-2.5,1-2.5,2.4c0,0.1-0.1,0.2-0.1,0.3 c-0.1,0.1-0.2,0.1-0.3,0.1c-0.7-0.2-1.4-0.1-2.1,0.1c-1.4,0.5-2.4,1.9-2.5,3.3c0,1,0.3,2,1,2.7c0.7,0.7,1.7,1.1,2.7,1.1h9.5 c0.2,0,0.4,0.2,0.4,0.4S48.5,58,48.3,58h-9.5c-1.2,0-2.4-0.5-3.2-1.4c-0.9-0.9-1.3-2.1-1.2-3.3c0.1-1.8,1.3-3.4,3-4 c0.7-0.3,1.4-0.3,2.1-0.2c0.3-1.5,1.6-2.7,3.2-2.7c0.6,0,1.2,0.2,1.7,0.5c0-0.3,0-0.7,0.1-1c0.4-2.1,2.2-3.8,4.3-4.1 c1.4-0.2,2.8,0.2,3.8,1.1c0.9,0.7,1.5,1.7,1.7,2.7c0.8-0.8,2-1.2,3.1-1.2c2.5,0,4.6,2.1,4.6,4.6c0,0.1,0,0.2,0,0.2 c1.9,0.5,3.2,2.3,3.2,4.3C65.3,56,63.3,58,60.8,58z"/><path fill="#472b29" d="M39.6,54.4C39.5,54.4,39.5,54.4,39.6,54.4c-0.2,0-0.3-0.1-0.2-0.3c0.1-1.4,1.3-2.4,2.8-2.3 c0.1,0,0.2,0,0.3,0c0.2-0.8,1.1-1.4,2-1.3c0.3,0,0.7,0.1,0.9,0.3c0.1-1.5,1.5-2.7,3.2-2.6c0.1,0,0.2,0.1,0.2,0.3 c0,0.1-0.1,0.3-0.3,0.2c-1.4-0.1-2.6,0.9-2.7,2.1c0,0.2,0,0.3,0,0.5c0,0.1,0,0.2-0.1,0.3c-0.1,0-0.2,0-0.3-0.1 c-0.3-0.3-0.6-0.5-1.1-0.5c0,0-0.1,0-0.1,0c-0.7,0-1.3,0.5-1.4,1.1c0,0.1,0,0.1-0.1,0.2c-0.1,0-0.1,0.1-0.2,0 c-0.2,0-0.3-0.1-0.5-0.1c-1.2-0.1-2.2,0.7-2.3,1.8C39.8,54.3,39.7,54.4,39.6,54.4z"/><g><path fill="#472b29" d="M53.5,60.9h-15c-0.2,0-0.4-0.2-0.4-0.4s0.2-0.4,0.4-0.4h15c0.2,0,0.4,0.2,0.4,0.4S53.7,60.9,53.5,60.9z"/></g><g><path fill="#472b29" d="M60.5,60.9h-4c-0.2,0-0.4-0.2-0.4-0.4s0.2-0.4,0.4-0.4h4c0.2,0,0.4,0.2,0.4,0.4S60.7,60.9,60.5,60.9z"/></g><g><path fill="#472b29" d="M58.5,62.9h-14c-0.2,0-0.4-0.2-0.4-0.4s0.2-0.4,0.4-0.4h14c0.2,0,0.4,0.2,0.4,0.4S58.7,62.9,58.5,62.9z"/></g></svg>