<svg xmlns="http://www.w3.org/2000/svg" version="1.1" xmlns:xlink="http://www.w3.org/1999/xlink" width="512" height="512" x="0" y="0" viewBox="0 0 458.001 458" style="enable-background:new 0 0 512 512" xml:space="preserve" class=""><g><path d="M203.586 105a47.308 47.308 0 0 1 2.86 16.344c-.012 27.054-21.958 48.976-49.012 48.965-27.055-.012-48.977-21.957-48.965-49.012a46.978 46.978 0 0 1 2.86-16.3H61V307h336V105h-24.328c-3.383 1-7.672 2.387-11.672 2.387V107h-65.613l-51.133 35.434a7.222 7.222 0 0 1-3.973 1.414 7.067 7.067 0 0 1-4.328-1.547 7.153 7.153 0 0 1-2.21-8.102L244.065 107h-5.554a39.91 39.91 0 0 1-11.305-2zM243 205.102v74.18a6.893 6.893 0 0 1-2.18 4.855 6.9 6.9 0 0 1-4.984 1.863H79.078A6.83 6.83 0 0 1 72 279.285v-74.183C72 180.414 92.16 160 116.848 160a7.12 7.12 0 0 1 5.64 2.973 43.198 43.198 0 0 0 34.957 17.851 43.212 43.212 0 0 0 34.973-17.812 7.164 7.164 0 0 1 5.64-3.012c24.813.168 44.864 20.29 44.942 45.102zm0 0" fill="#22a95c" opacity="1" data-original="#000000" class=""></path><path d="M157.512 194.844a57.416 57.416 0 0 1-43.957-20.36C97.91 176.176 86.039 189.364 86 205.102V272h143v-66.898c-.059-15.747-11.945-28.93-27.598-30.618a58.01 58.01 0 0 1-9.964 9.235 57.126 57.126 0 0 1-33.926 11.125zM254.879 118.227l34.355-23.786A7.212 7.212 0 0 1 293.207 93h68.16C367.187 93 372 88.668 372 82.848v-72.38C371.95 4.646 367.191-.038 361.367 0H238.512A10.456 10.456 0 0 0 228 10.469v72.379a10.187 10.187 0 0 0 3.113 7.297A10.178 10.178 0 0 0 238.512 93h15.73a7.18 7.18 0 0 1 5.766 3.207 7.357 7.357 0 0 1 .77 6.648zM259.477 24h36.953a7.001 7.001 0 0 1 0 14h-36.953a7.001 7.001 0 0 1 0-14zm0 42a7.001 7.001 0 0 1 0-14h80.93a7.001 7.001 0 0 1 0 14zM285.434 364.676A47.692 47.692 0 0 1 250.454 380H207.55a47.677 47.677 0 0 1-34.977-15.324l-6.16-6.676H0v24.52a33.282 33.282 0 0 0 9.664 23.66A33.266 33.266 0 0 0 33.258 416h391.484A33.266 33.266 0 0 0 458 382.52V358H291.586zm0 0" fill="#22a95c" opacity="1" data-original="#000000" class=""></path><path d="M54.695 62C36.191 61.883 21.102 76.797 21 95.3V344h148.48a7.074 7.074 0 0 1 5.149 2.336l8.234 9.012A33.496 33.496 0 0 0 207.547 366h42.902a33.571 33.571 0 0 0 24.684-10.734l8.234-8.848A7.183 7.183 0 0 1 288.52 344H437V95.3c-.098-18.503-15.188-33.417-33.691-33.3H386v20.848A29.925 29.925 0 0 1 384.652 91h19.192c3.863 0 7.156 2.77 7.156 6.637v216.332a7.162 7.162 0 0 1-7.156 7.031H54.16a7.166 7.166 0 0 1-7.16-7.031V97.637C47 93.77 50.293 91 54.16 91h64.985c8.984-12 22.812-18.512 38.312-18.512 15.496 0 29.328 6.512 38.313 18.512h19.46a29.4 29.4 0 0 1-1.23-8.152V62zm0 0" fill="#22a95c" opacity="1" data-original="#000000" class=""></path><path d="M192.445 121.113c0 19.325-15.664 34.989-34.988 34.989s-34.988-15.665-34.988-34.989 15.664-34.988 34.988-34.988 34.988 15.664 34.988 34.988zm0 0" fill="#22a95c" opacity="1" data-original="#000000" class=""></path></g></svg>