<svg xmlns="http://www.w3.org/2000/svg" version="1.1" xmlns:xlink="http://www.w3.org/1999/xlink" width="512" height="512" x="0" y="0" viewBox="0 0 512 512" style="enable-background:new 0 0 512 512" xml:space="preserve" class=""><g><defs><linearGradient id="a" x1="47.826" x2="403.134" y1="464.174" y2="108.866" gradientUnits="userSpaceOnUse"><stop stop-opacity="1" stop-color="#5d99ca" offset="0"></stop><stop stop-opacity="1" stop-color="#7bd67a" offset="1"></stop></linearGradient><linearGradient xlink:href="#a" id="b" x1="63.826" x2="419.134" y1="480.174" y2="124.866"></linearGradient><linearGradient xlink:href="#a" id="c" x1="15.826" x2="371.134" y1="432.174" y2="76.866"></linearGradient><linearGradient xlink:href="#a" id="d" x1="71.829" x2="427.137" y1="488.177" y2="132.869"></linearGradient></defs><g data-name="04-global"><path fill="url(#a)" d="M512 160C512 71.776 440.225 0 352 0c-65.493 0-121.911 39.56-146.641 96.034C91.881 97.455 0 190.192 0 304c0 114.691 93.309 208 208 208 113.808 0 206.545-91.881 207.967-205.359C472.441 281.911 512 225.493 512 160ZM287.984 306.64a361.083 361.083 0 0 1-3.123 45.36H131.139a366.367 366.367 0 0 1 .038-96h92.433l-14.738 42.79c-4.5 12.4 8.187 24.9 20.486 20.286l48.538-17.25a158.62 158.62 0 0 0 10.088 4.814ZM208 480c-18.986 0-38.513-17.273-53.571-47.391A231.068 231.068 0 0 1 137.1 384h141.8a231.068 231.068 0 0 1-17.324 48.609C246.513 462.727 226.986 480 208 480ZM32 304a175.536 175.536 0 0 1 6.654-48h60.263a397.738 397.738 0 0 0-.02 96H38.654A175.536 175.536 0 0 1 32 304Zm105.16-80c6.471-26.566 16.171-49.85 27.977-66.836 6.93-9.971 17.06-21.378 29.562-26.467a159.966 159.966 0 0 0 10.68 93.3Zm-1.5-80.438c-13.579 21.043-24.396 48.348-31.347 80.438H51.255a177.151 177.151 0 0 1 84.403-80.438ZM51.255 384H104.3c5.032 23.124 12.268 44.447 21.5 62.92a186.569 186.569 0 0 0 9.969 17.57A177.149 177.149 0 0 1 51.255 384Zm228.969 80.49a186.569 186.569 0 0 0 9.969-17.57c9.237-18.473 16.473-39.8 21.5-62.92h53.047a177.149 177.149 0 0 1-84.516 80.49ZM377.346 352H317.1c1.412-11.5 2.315-23.3 2.691-35.284a160.047 160.047 0 0 0 63.733.158A174.992 174.992 0 0 1 377.346 352ZM352 288a127.881 127.881 0 0 1-64.583-17.471 16 16 0 0 0-13.445-1.27l-24.025 8.541 6.892-20.009a16 16 0 0 0-2.878-15.5A127.995 127.995 0 1 1 352 288Z" opacity="1" data-original="url(#a)"></path><circle cx="400" cy="144" r="16" fill="url(#b)" opacity="1" data-original="url(#b)"></circle><circle cx="304" cy="144" r="16" fill="url(#c)" opacity="1" data-original="url(#c)"></circle><path fill="url(#d)" d="M390.4 195.208a64.024 64.024 0 0 1-76.788 0l-12.796-9.608-19.216 25.589 12.793 9.61a96.023 96.023 0 0 0 115.227-.007l12.792-9.61-19.223-25.582Z" opacity="1" data-original="url(#d)"></path></g></g></svg>