<?xml version="1.0" encoding="utf-8"?>
<!-- Generator: Adobe Illustrator 27.5.0, SVG Export Plug-In . SVG Version: 6.00 Build 0)  -->
<svg version="1.1" xmlns="http://www.w3.org/2000/svg" xmlns:xlink="http://www.w3.org/1999/xlink" x="0px" y="0px"
	 viewBox="0 0 1122 1122" style="enable-background:new 0 0 1122 1122;" xml:space="preserve">
<g id="Bg">
	<g>
		<g>
			<rect style="fill:#FFFFFF;" width="1122" height="1122"/>
		</g>
	</g>
</g>
<g id="Object">
	<g>
		<path style="fill:#616E7D;" d="M320.177,623.096l-8.903,7.395l129.563,16.111c18.822,7.492,38.455,12.843,58.693,16.114
			c6.797-65.867,76.813-117.825,161.977-117.825c34.509,0,66.512,8.552,92.857,23.083c16.467-24.831,25.824-52.979,25.824-82.816
			c0-100.022-104.58-181.401-233.137-181.401c-128.558,0-233.149,81.379-233.149,181.401c0,35.91,13.472,70.494,38.987,100.331
			l-0.206,0.157l2.493,2.642C352.307,594.109,335.44,610.395,320.177,623.096z M391.821,404.671h303.916v16.507H391.821V404.671z
			 M391.821,465.903h303.916v16.51H391.821V465.903z M391.821,527.141h160.906v16.51H391.821V527.141z"/>
		<path style="fill:#AAD4C8;" d="M512.275,673.243c0,63.42,66.96,115.011,149.232,115.011c18.192,0,36.083-2.566,53.173-7.611
			l3.631-1.068l41.844,38.669v-58.85l2.784-1.997c30.369-21.763,47.787-52.441,47.787-84.154c0-63.413-66.96-115.01-149.219-115.01
			C579.235,558.233,512.275,609.83,512.275,673.243z"/>
		<rect x="391.821" y="404.671" style="fill:#82BFAB;" width="303.916" height="16.507"/>
		<rect x="391.821" y="465.903" style="fill:#82BFAB;" width="303.916" height="16.51"/>
		<rect x="391.821" y="527.141" style="fill:#82BFAB;" width="160.906" height="16.51"/>
	</g>
</g>
</svg>
